<?xml version="1.0" encoding="UTF-8"?>
<svg width="60px" height="60px" viewBox="0 0 60 60" version="1.1" xmlns="http://www.w3.org/2000/svg" xmlns:xlink="http://www.w3.org/1999/xlink">
    <title>illustrations / delivery</title>
    <g id="illustrations-/-delivery" stroke="none" stroke-width="1" fill="none" fill-rule="evenodd">
        <g id="Group-10" transform="translate(6.000000, 6.000000)">
            <polygon id="Path-3" fill="#FFFFFF" points="5 5.68434189e-14 0 7 0 37 38 37 37 7 33 5.68434189e-14"></polygon>
            <circle id="Oval" stroke="#979797" fill="#BFDFFF" cx="36.5" cy="36.5" r="9.5"></circle>
            <polygon id="Path-4" fill="#BFDFFF" points="17 1 15 7 15 15 23 14 23 6 21 1"></polygon>
            <path d="M16.6249539,16.5082173 L23.5831675,15.1156312 L23.5831675,8.25410863 L35.3747513,8.25410863 L35.3747513,20.0456924 L37.733068,20.0456924 L37.733068,6.74832338 L33.6838382,0 L4.04922986,0 L0,6.74832338 L0,37.733068 L23.5831675,37.733068 L23.5831675,35.3747513 L2.35831675,35.3747513 L2.35831675,8.25410863 L14.1699462,8.25410863 L14.1499005,16.5082173 L16.6249539,16.5082173 Z M21.2248508,13.1841698 L16.5082173,14.1274965 L16.5082173,8.25410863 L21.2248508,8.25410863 L21.2248508,13.1841698 Z M16.7676321,5.89579188 L17.4751271,2.35831675 L20.2591201,2.35831675 L20.9666151,5.89579188 L16.7676321,5.89579188 Z M34.471516,5.89579188 L23.3520525,5.89579188 L22.6575282,2.35831675 L32.3478517,2.35831675 L34.471516,5.89579188 Z M5.38403714,2.35831675 L15.069644,2.35831675 L14.362149,5.89579188 L3.26155207,5.89579188 L5.38403714,2.35831675 Z M37.733068,26.0110546 L37.733068,24.7623259 L38.9122264,24.7623259 L38.9122264,22.4040091 L37.733068,22.4040091 L35.3747513,22.4040091 L34.1955929,22.4040091 L34.1955929,24.7623259 L35.3747513,24.7623259 L35.3747513,26.0110546 C30.0767927,26.5994546 25.9414843,31.1003022 25.9414843,36.5539096 C25.9414843,42.4060727 30.7029258,47.166335 36.5539096,47.166335 C42.4048935,47.166335 47.166335,42.4060727 47.166335,36.5539096 C47.166335,31.1003022 43.0310266,26.5994546 37.733068,26.0110546 Z M36.5539096,44.8080183 C32.0023583,44.8080183 28.299801,41.1042818 28.299801,36.5539096 C28.299801,32.0035375 32.0023583,28.299801 36.5539096,28.299801 C41.105461,28.299801 44.8080183,32.0035375 44.8080183,36.5539096 C44.8080183,41.1042818 41.105461,44.8080183 36.5539096,44.8080183 Z M46.3326701,29.133466 L43.9743533,26.7751492 L45.6416832,25.1078193 L48,27.466136 L46.3326701,29.133466 Z" id="Shape" fill="#022546" fill-rule="nonzero"></path>
            <polygon id="Path" fill="#022546" fill-rule="nonzero" points="32.6709411 31.0036112 38.566733 36.8994031 36.8994031 38.566733 31.0036112 32.6709411"></polygon>
        </g>
    </g>
</svg>