<svg id="Lag_1" data-name="Lag 1" xmlns="http://www.w3.org/2000/svg" viewBox="0 0 59.97 59.77">
  <defs>
    <style>
      .cls-1 {
        fill: #fff;
      }

      .cls-1, .cls-3 {
        fill-rule: evenodd;
      }

      .cls-2, .cls-3 {
        fill: #bfdfff;
      }

      .cls-2 {
        stroke: #979797;
      }

      .cls-4 {
        fill: #022546;
      }

      .cls-5 {
        fill: none;
      }
    </style>
  </defs>
  <polygon id="Path-3" class="cls-1" points="10.86 5.87 5.86 12.87 5.86 42.87 43.86 46.39 42.86 16.39 38.86 5.87 10.86 5.87"/>
  <circle id="Oval" class="cls-2" cx="42.36" cy="42.37" r="9.5"/>
  <polygon id="Path-4" class="cls-3" points="22.86 6.87 20.86 12.87 20.86 20.87 28.86 19.87 28.86 11.87 26.86 6.87 22.86 6.87"/>
  <path id="Shape" class="cls-4" d="M22.62,22.51l7-1.39V14.25H41.37V29.57h2.36V12.75L39.68,6H10.05L6,12.75v31H29.58V41.37H8.36V14.25H20.17l0,8.26Zm4.6-3.33-4.71.95V14.25h4.71ZM22.77,11.9l.71-3.54h2.78L27,11.9Zm17.7,0H29.35l-.69-3.54h9.69ZM11.38,8.36h9.69l-.71,3.54H9.26ZM41,32.06A10.61,10.61,0,1,0,53.17,42.55c0-5.22-4.31-9.6-8.85-10.45A6.7,6.7,0,0,0,43.14,32H41.73A4,4,0,0,0,41,32.06Zm1.52,18.75a8.26,8.26,0,1,1,8.26-8.26A8.27,8.27,0,0,1,42.55,50.81Z" transform="translate(-0.14 -0.13)"/>
  <path class="cls-4" d="M42.23,37.3c.66.07,1.3.08,1.92.21a5.7,5.7,0,1,1-7,6.14,1.05,1.05,0,0,1,.89-1.17,1,1,0,0,1,1.16.89A3.52,3.52,0,0,0,42,46.57a3.63,3.63,0,0,0,4-5.28,3.54,3.54,0,0,0-3.53-1.85c-.23,0-.33.1-.32.34a6.52,6.52,0,0,1,0,.77c0,.34-.21.46-.49.29-1.24-.74-2.47-1.49-3.7-2.24-.29-.18-.28-.41,0-.57,1.26-.71,2.52-1.4,3.79-2.09.29-.15.49,0,.5.3S42.23,37,42.23,37.3Z" transform="translate(-0.14 -0.13)"/>
  <rect class="cls-5" width="59.97" height="59.77"/>
</svg>
