<svg id="Lag_1" data-name="Lag 1" xmlns="http://www.w3.org/2000/svg" viewBox="0 0 60.13 60">
  <defs>
    <style>
      .cls-1, .cls-4, .cls-5, .cls-7 {
        fill: none;
      }

      .cls-2 {
        fill: #fff;
      }

      .cls-2, .cls-3, .cls-4, .cls-5, .cls-6, .cls-7 {
        stroke: #022546;
      }

      .cls-2, .cls-4, .cls-5, .cls-6, .cls-7 {
        stroke-miterlimit: 10;
      }

      .cls-2, .cls-3, .cls-4 {
        stroke-width: 2.37px;
      }

      .cls-3, .cls-6 {
        fill: #bfdfff;
      }

      .cls-5 {
        stroke-width: 2.56px;
      }

      .cls-6 {
        stroke-width: 1.89px;
      }

      .cls-7 {
        stroke-width: 2.05px;
      }
    </style>
  </defs>
  <rect class="cls-1" width="59.74" height="59.74"/>
  <polyline class="cls-2" points="49.59 23.06 49.59 49.3 10.12 49.3 10.12 23.06"/>
  <rect class="cls-3" x="14.21" y="29.39" width="15.65" height="11.44"/>
  <rect class="cls-3" x="33.84" y="29.23" width="11.6" height="20"/>
  <line class="cls-4" x1="33.9" y1="39.28" x2="45.23" y2="39.28"/>
  <line class="cls-5" x1="6.71" y1="49.3" x2="53.52" y2="49.3"/>
  <g>
    <path class="cls-6" d="M39.41,10.37h9.66c1.06,3.94,2.43,7.72,3.49,11.67a5.51,5.51,0,0,1-5.37,4.16,7.08,7.08,0,0,1-6.13-4.09s-1.51,4.13-5.67,4.13c-3.62,0-5.15-4.07-5.3-3.93s0,0,0,0c.09.38-2.37,4-5.9,3.86s-5.79-4.07-5.6-4.33c0,0,0,0,0,0a5.8,5.8,0,0,1-2.42,3.45,5.57,5.57,0,0,1-3.18.78,5.56,5.56,0,0,1-4-1.26,7,7,0,0,1-1.64-3.06C8.68,18,9.66,14.12,10.91,10.37h28.5" transform="translate(-0.17 -0.19)"/>
    <path class="cls-7" d="M39.34,10.41S41,21.63,41.09,21.63c3.76,0,7.58,0,11.31,0h0c-14.93,0-29.82,0-44.8,0,.43,0,.86,0,1.29,0H7.6c3.65,0,7.34.23,11,0,.6-3.68,1.14-7.37,1.71-11.08" transform="translate(-0.17 -0.19)"/>
    <path class="cls-5" d="M30.12,10.43" transform="translate(-0.17 -0.19)"/>
    <path class="cls-7" d="M30,21.23c.07-3.62,0-6.88.1-10.8" transform="translate(-0.17 -0.19)"/>
  </g>
  <rect class="cls-1" width="60.13" height="60"/>
</svg>
