<svg id="Lag_1" data-name="Lag 1" xmlns="http://www.w3.org/2000/svg" viewBox="0 0 57.74 38.48"><defs><style>.cls-1{fill:#fff;}.cls-1,.cls-3{stroke:#022546;stroke-miterlimit:10;stroke-width:2.2px;}.cls-2{fill:#022546;}.cls-3{fill:#bfdfff;}</style></defs><path class="cls-1" d="M14.25,39.67H7.89a3.16,3.16,0,0,0,0,.51c0,.43-.16.62-.6.62H3.64c-.59,0-.86-.31-.86-.91,0-1.33,0-2.65,0-4,0-.64.31-.91.94-.9,1.06,0,2.12,0,3.18,0,.69,0,1.07.14.95.91a1.48,1.48,0,0,0,0,.4h6.35c.26-1.3.26-1.3,1.67-1.31h1.2V11.71a3.23,3.23,0,0,1,3.59-3.56H51.77c2.58,0,3.78,1.22,3.78,3.82V35h1.82c.66,0,1,.3,1,1,0,1.27,0,2.55,0,3.83,0,.75-.24,1-1,1-3.32,0-6.65,0-10,0-.62,0-.83-.24-.7-.84a10.47,10.47,0,0,0-8.79-12.5,10.09,10.09,0,0,0-9.68,3.83A10.16,10.16,0,0,0,26,40c.13.71,0,.85-.72.85H15.5C14.41,40.79,14.41,40.79,14.25,39.67Z" transform="translate(-1.68 -7.05)"/><path class="cls-2" d="M36.26,45.53a7.8,7.8,0,0,1-.12-15.59,7.8,7.8,0,1,1,.12,15.59Zm3.47-7.87a3.49,3.49,0,1,0-3.48,3.48A3.49,3.49,0,0,0,39.73,37.66Z" transform="translate(-1.68 -7.05)"/><circle class="cls-3" cx="34.57" cy="30.68" r="4.7"/></svg>